<svg width="100" height="100" viewBox="0 0 100 100" fill="none" xmlns="http://www.w3.org/2000/svg">
  <!-- Golden Crescent Moon -->
  <path d="M50 10C42 10 35 14 31 20C34 18 38 17 42 17C53 17 62 26 62 37C62 42 60 47 57 51C65 48 71 40 71 31C71 19 62 10 50 10Z" fill="#D4AF37" />
  
  <!-- Rays -->
  <path d="M47 50L45 45M50 52V46M53 50L55 45" stroke="#D4AF37" stroke-width="1.5" stroke-linecap="round" />

  <!-- Open Quran Book -->
  <!-- Left Wing -->
  <path d="M50 85C35 85 15 75 10 65L45 55C48 55 50 58 50 60V85Z" fill="#06402B" />
  <path d="M50 82C38 82 20 73 15 65L45 58C48 58 50 60 50 62V82Z" fill="#27A265" />
  
  <!-- Right Wing -->
  <path d="M50 85C65 85 85 75 90 65L55 55C52 55 50 58 50 60V85Z" fill="#06402B" />
  <path d="M50 82C62 82 80 73 85 65L55 58C52 58 50 60 50 62V82Z" fill="#27A265" />

  <!-- Base/Shadow -->
  <path d="M20 90C35 95 65 95 80 90" stroke="#06402B" stroke-width="2" stroke-linecap="round" />
</svg>
